<svg width="26" height="26" viewBox="0 0 26 26" fill="none" xmlns="http://www.w3.org/2000/svg">
<g clip-path="url(#clip0_29_115)">
<path fill-rule="evenodd" clip-rule="evenodd" d="M0.5 13.0698C0.5 19.2844 5.01354 24.4521 10.9167 25.5V16.4719H7.79167V13H10.9167V10.2219C10.9167 7.09687 12.9302 5.36146 15.7781 5.36146C16.6802 5.36146 17.6531 5.5 18.5552 5.63854V8.83333H16.9583C15.4302 8.83333 15.0833 9.59687 15.0833 10.5698V13H18.4167L17.8615 16.4719H15.0833V25.5C20.9865 24.4521 25.5 19.2854 25.5 13.0698C25.5 6.15625 19.875 0.5 13 0.5C6.125 0.5 0.5 6.15625 0.5 13.0698Z" fill="black"/>
</g>
<defs>
<clipPath id="clip0_29_115">
<rect width="25" height="25" fill="white" transform="translate(0.5 0.5)"/>
</clipPath>
</defs>
</svg>
