<svg width="25" height="26" viewBox="0 0 25 26" fill="none" xmlns="http://www.w3.org/2000/svg">
<path d="M22.35 11.0771C22.4781 11.7636 22.5479 12.4813 22.5479 13.2302C22.5479 19.0886 18.6271 23.2542 12.7052 23.2542C11.3585 23.2546 10.0249 22.9896 8.78063 22.4745C7.53635 21.9593 6.40578 21.204 5.45351 20.2517C4.50124 19.2995 3.74594 18.1689 3.23077 16.9246C2.71559 15.6803 2.45064 14.3467 2.45105 13C2.45064 11.6533 2.71559 10.3197 3.23077 9.07543C3.74594 7.83115 4.50124 6.70058 5.45351 5.74831C6.40578 4.79604 7.53635 4.04074 8.78063 3.52557C10.0249 3.01039 11.3585 2.74544 12.7052 2.74585C15.474 2.74585 17.7875 3.7646 19.5625 5.41877L16.6719 8.30939V8.3021C15.5958 7.2771 14.2302 6.75106 12.7052 6.75106C9.32188 6.75106 6.57188 9.60939 6.57188 12.9938C6.57188 16.3771 9.32188 19.2417 12.7052 19.2417C15.775 19.2417 17.8646 17.4865 18.2938 15.0761H12.7052V11.0771H22.3511H22.35Z" fill="black"/>
</svg>
